# AST/ASF file generated using VICON BodyLanguage
# -----------------------------------------------
:version 1.10
:name VICON
:units
  mass 1.0
  length 0.45
  angle deg
:documentation
   .ast/.asf automatically generated from VICON data using
   VICON BodyBuilder and BodyLanguage model FoxedUp or BRILLIANT.MOD
:root
   order TX TY TZ RX RY RZ
   axis XYZ
   position 0 0 0  
   orientation 0 0 0 
:bonedata
  begin
     id 1 
     name lhipjoint
     direction 0.602128 -0.715006 0.355257 
     length 2.21237 
     axis 0 0 0  XYZ
  end
  begin
     id 2 
     name lfemur
     direction 0.34202 -0.939693 0  
     length 6.71649  
     axis 0 0 20  XYZ
    dof rx ry rz
    limits (-160.0 20.0)
           (-70.0 70.0)
           (-60.0 70.0)
  end
  begin
     id 3 
     name ltibia
     direction 0.34202 -0.939693 0   
     length 6.97123   
     axis 0 0 20   XYZ
    dof rx
    limits (-10.0 170.0)
  end
  begin
     id 4 
     name lfoot
     direction 0.0655697 -0.180151 0.981451   
     length 1.80924   
     axis -90 7.62852e-016 20   XYZ
    dof rx rz
    limits (-45.0 90.0)
           (-70.0 20.0)
  end
  begin
     id 5 
     name ltoes
     direction 1.53545e-011 -4.21827e-011 1   
     length 0.916331   
     axis -90 7.62852e-016 20   XYZ
    dof rx
    limits (-90.0 20.0)
  end
  begin
     id 6 
     name rhipjoint
     direction -0.625414 -0.698792 0.347201   
     length 2.2637  
     axis 0 0 0  XYZ 
  end
  begin
     id 7 
     name rfemur
     direction -0.34202 -0.939693 0   
     length 7.07595   
     axis 0 0 -20   XYZ
    dof rx ry rz
    limits (-160.0 20.0)
           (-70.0 70.0)
           (-70.0 60.0)
  end
  begin
     id 8 
     name rtibia
     direction -0.34202 -0.939693 0   
     length 7.22924   
     axis 0 0 -20   XYZ
    dof rx
    limits (-10.0 170.0)
 end
 begin
     id 9 
     name rfoot
     direction -0.0766747 -0.210662 0.974547   
     length 1.98482  
     axis -90 -7.62852e-016 -20   XYZ
    dof rx rz
    limits (-45.0 90.0)
           (-20.0 70.0)
  end
  begin
     id 10 
     name rtoes
     direction -1.53532e-011 -4.21867e-011 1   
     length 0.999842   
     axis -90 -7.62852e-016 -20   XYZ
    dof rx
    limits (-90.0 20.0)
  end
  begin
     id 11 
     name lowerback
     direction -0.0224668 0.997354 -0.0691422   
     length 2.09945   
     axis 0 0 0   XYZ
    dof rx ry rz
    limits (-20.0 45.0)
           (-30.0 30.0)
           (-30.0 30.0)
  end
  begin
     id 12 
     name upperback
     direction 0.0134698 0.998451 -0.0539888   
     length 2.09758   
     axis 0 0 0   XYZ
    dof rx ry rz
    limits (-20.0 45.0)
           (-30.0 30.0)
           (-30.0 30.0)
  end
  begin
     id 13 
     name thorax
     direction 0.0241905 0.99948 -0.0213333   
     length 2.10428   
     axis 0 0 0   XYZ
    dof rx ry rz
    limits (-20.0 45.0)
           (-30.0 30.0)
           (-30.0 30.0)
  end
  begin
     id 14 
     name lowerneck
     direction -0.00866847 0.995978 0.0891737   
     length 1.3959   
     axis 0 0 0   XYZ
    dof rx ry rz
    limits (-20.0 45.0)
           (-30.0 30.0)
           (-30.0 30.0)
  end
  begin
     id 15 
     name upperneck
     direction 0.0680679 0.992203 0.104404   
     length 1.39452   
     axis 0 0 0   XYZ
    dof rx ry rz
    limits (-20.0 45.0)
           (-30.0 30.0)
           (-30.0 30.0)
  end
  begin
     id 16
     name head
     direction 0.0242216 0.999358 0.0264054  
     length 1.40433  
     axis 0 0 0   XYZ
    dof rx ry rz
    limits (-20.0 45.0)
           (-30.0 30.0)
           (-30.0 30.0)
  end
  begin
     id 17 
     name lclavicle
     direction 0.929368 0.362991 -0.0671771  
     length 3.04887  
     axis 0 0 0   XYZ
    dof ry rz
    limits (-20.0 10.0)
           (0.0 20.0)
  end
  begin
     id 18 
     name lhumerus
     direction 1 -4.48967e-011 -7.13741e-028   
     length 4.77195   
     axis -180 -30 -90   XYZ
    dof rx ry rz
    limits (-60.0 90.0)
           (-90.0 90.0)
           (-90.0 90.0)
  end
  begin
     id 19
     name lradius
     direction 1 -4.48977e-011 3.60404e-027   
     length 2.98444   
     axis -180 -30 -90   XYZ
    dof rx
    limits (-10.0 170.0)
  end
  begin
     id 20
     name lwrist
     direction 1 -4.48997e-011 7.54877e-027   
     length 1.49222   
     axis -7.18178e-015 90 90   XYZ
    dof ry
    limits (-180.0 0.0)
 end
  begin
     id 21 
     name lhand
     direction 1 -4.489e-011 1.51105e-026   
     length 0.992285   
     axis -9.63605e-015 90 90   XYZ
    dof rx rz
    limits (-90.0 90.0)
           (-45.0 45.0)
  end
  begin
     id 22 
     name lfingers
     direction 1 -4.48998e-011 3.01948e-026   
     length 0.800006   
     axis -1.92718e-014 90 90   XYZ
    dof rx
    limits (0.0 90.0)
  end
  begin
     id 23
     name lthumb
     direction 0.707107 -6.34881e-011 0.707107   
     length 1.14865   
     axis -90 45 -3.53137e-014   XYZ
    dof rx rz
    limits (-45.0 45.0)
           (-45.0 45.0)
  end
  begin
     id 24 
     name rclavicle
     direction -0.945672 0.324529 0.0196374   
     length 3.4236  
     axis 0 0 0   XYZ 
    dof ry rz
    limits (-10.0 20.0)
           (-20.0 0.0)
  end
  begin
     id 25 
     name rhumerus
     direction -1 -4.4896e-011 1.02757e-029  
     length 4.62052   
     axis -180 30 90   XYZ
    dof rx ry rz
    limits (-90.0 60.0)
           (-90.0 90.0)
           (-90.0 90.0)
  end
  begin
     id 26 
     name rradius
     direction -1 -4.48982e-011 3.85962e-027   
     length 2.95332   
     axis -180 30 90   XYZ
    dof rx
    limits (-10.0 170.0)
  end
  begin
     id 27 
     name rwrist
     direction -1 -4.48961e-011 7.55118e-027   
     length 1.47666   
     axis -7.18178e-015 -90 -90   XYZ
    dof ry
    limits (-180.0 0.0)
  end
  begin
     id 28
     name rhand
     direction -1 -4.48984e-011 1.50994e-026   
     length 0.990956   
     axis -9.63605e-015 -90 -90   XYZ
    dof rx rz
    limits (-90.0 90.0)
           (-45.0 45.0)
  end
  begin
     id 29
     name rfingers
     direction -1 -4.4892e-011 3.02158e-026   
     length 0.798934   
     axis -1.92718e-014 -90 -90   XYZ
    dof rx
    limits (0.0 90.0)
  end
  begin
     id 30
     name rthumb
     direction -0.707107 -6.34916e-011 0.707107   
     length 1.14711   
     axis -90 -45 3.53137e-014   XYZ
    dof rx rz
    limits (-45.0 45.0)
           (-45.0 45.0)
  end
:hierarchy
  begin
    root lhipjoint rhipjoint lowerback
    lhipjoint lfemur
    lfemur ltibia
    ltibia lfoot
    lfoot ltoes
    rhipjoint rfemur
    rfemur rtibia
    rtibia rfoot
    rfoot rtoes
    lowerback upperback
    upperback thorax
    thorax lowerneck lclavicle rclavicle
    lowerneck upperneck
    upperneck head
    lclavicle lhumerus
    lhumerus lradius
    lradius lwrist
    lwrist lhand lthumb
    lhand lfingers
    rclavicle rhumerus
    rhumerus rradius
    rradius rwrist
    rwrist rhand rthumb
    rhand rfingers
  end

#!OML:ASF H:\ManfredObstacles\Project 1\Capture day 1\Session 1\Male.ASF
:FULLY-SPECIFIED
:DEGREES
48
root -0.109795 16.2383 31.4391 -167.785 -10.9401 -176.243
lowerback -11.1678 -2.20185 -0.760986
upperback 1.61718 -3.13021 2.91184
thorax 8.21023 -1.6624 2.9524
lowerneck 1.68014 -2.37249 -4.63407
upperneck -7.57051 -3.07799 8.42903
head -2.53634 -1.77324 3.70589
rclavicle -4.94477e-015 1.77912e-014
rhumerus -37.9304 -28.972 -69.6653
rradius 24.2828
rwrist 35.3157
rhand -4.65948 -11.5702
rfingers 7.12502
rthumb 21.1206 -40.4399
lclavicle -4.94477e-015 1.77912e-014
lhumerus -25.0228 6.78403 88.9621
lradius 17.5002
lwrist -30.7799
lhand -8.06022 9.08152
lfingers 7.12502
lthumb 17.8509 38.2822
rfemur -30.5803 -6.72816 23.306
rtibia 28.043
rfoot -12.39 10
rtoes 19.2698
lfemur 0.716111 -4.46481 -16.1961
ltibia -1.59028e-015
lfoot -9.85064 -0.0913095
ltoes -26.9542
49
root -0.094909 16.2378 31.4143 -167.767 -10.8822 -176.324
lowerback -11.0964 -2.1637 -0.774299
upperback 1.61616 -3.06673 2.83392
thorax 8.15982 -1.62818 2.89085
lowerneck 1.83138 -2.35146 -4.60911
upperneck -7.6546 -3.04637 8.51782
head -2.59489 -1.7661 3.73896
rclavicle -5.22555e-014 -7.35503e-015
rhumerus -38.082 -29.0504 -69.6945
rradius 24.3638
rwrist 35.2773
rhand -4.72112 -11.5611
rfingers 7.12502
rthumb 21.0613 -40.4373
lclavicle -5.22555e-014 -7.35503e-015
lhumerus -25.0388 6.76174 88.8818
lradius 17.4463
lwrist -30.9035
lhand -8.07727 9.08575
lfingers 7.12502
lthumb 17.8345 38.288
rfemur -30.537 -6.58501 23.25
rtibia 28.1321
rfoot -12.6623 9.92621
rtoes 19.5632
lfemur 0.789196 -4.42263 -16.226
ltibia -1.90833e-014
lfoot -9.90983 -0.0649976
ltoes -28.0242
50
root -0.0788974 16.2368 31.3861 -167.756 -10.9057 -176.326
lowerback -11.065 -2.13922 -0.735843
upperback 1.63829 -3.03451 2.79225
thorax 8.15898 -1.60901 2.8314
lowerneck 1.77709 -2.355 -4.4561
upperneck -7.62616 -3.04861 8.49322
head -2.57655 -1.77063 3.69851
rclavicle -1.73937e-016 -9.74045e-015
rhumerus -38.2128 -29.0305 -69.7686
rradius 24.4522
rwrist 35.1815
rhand -4.72592 -11.4806
rfingers 7.12502
rthumb 21.0567 -40.3574
lclavicle -1.73937e-016 -9.74045e-015
lhumerus -25.0511 6.68249 88.7738
lradius 17.3737
lwrist -31.0482
lhand -8.14957 8.93061
lfingers 7.12502
lthumb 17.7649 38.1391
rfemur -30.4816 -6.37083 23.2596
rtibia 28.2237
rfoot -13.1315 9.75778
rtoes 20.3086
lfemur 0.845421 -4.44331 -16.1436
ltibia -9.54166e-015
lfoot -9.94974 -0.0551161
ltoes -28.5324
51
root -0.0609383 16.2348 31.3533 -167.7 -10.9569 -176.118
lowerback -11.1779 -2.09612 -0.493524
upperback 1.66574 -3.0197 2.83236
thorax 8.242 -1.59362 2.73619
lowerneck 1.66288 -2.36276 -4.43394
upperneck -7.57001 -3.05803 8.53661
head -2.53546 -1.77562 3.70475
rclavicle 2.98425e-014 -1.21259e-014
rhumerus -38.2109 -29.044 -69.8423
rradius 24.4275
rwrist 35.0287
rhand -4.7399 -11.4584
rfingers 7.12502
rthumb 21.0433 -40.3367
lclavicle 2.98425e-014 -1.21259e-014
lhumerus -25.0156 6.29161 88.8762
lradius 17.4322
lwrist -30.7618
lhand -8.09493 9.30513
lfingers 7.12502
lthumb 17.8175 38.5089
rfemur -30.5063 -6.2267 23.5446
rtibia 28.3102
rfoot -13.3789 9.73186
rtoes 21.5306
lfemur 0.842513 -4.44049 -15.8112
ltibia 1.43125e-014
lfoot -9.97437 -0.00731272
ltoes -28.8705
52
root -0.0431002 16.2329 31.3195 -167.57 -10.9242 -176.065
lowerback -11.2781 -2.11052 -0.411806
upperback 1.63377 -3.05871 2.88557
thorax 8.26623 -1.61144 2.73671
lowerneck 1.50462 -2.33306 -4.64342
upperneck -7.35146 -3.02215 8.59937
head -2.43282 -1.74494 3.75546
rclavicle -1.31695e-015 -1.68967e-014
rhumerus -38.1736 -29.1403 -69.7369
rradius 24.2754
rwrist 35.2024
rhand -4.77772 -11.374
rfingers 7.12502
rthumb 21.007 -40.2563
lclavicle -1.31695e-015 -1.68967e-014
lhumerus -25.0469 6.69904 88.8014
lradius 17.3344
lwrist -31.1949
lhand -8.16208 9.1621
lfingers 7.12502
lthumb 17.7529 38.3717
rfemur -30.5826 -6.26335 23.718
rtibia 28.3506
rfoot -13.3501 9.97976
rtoes 22.648
lfemur 0.836549 -4.38328 -15.6641
ltibia 3.02153e-014
lfoot -9.97802 0.0535845
ltoes -29.0918
53
root -0.023188 16.2345 31.2845 -167.452 -10.9088 -176.136
lowerback -11.2744 -2.18357 -0.489539
upperback 1.5646 -3.14886 2.93005
thorax 8.20169 -1.66016 2.81197
lowerneck 1.28149 -2.25721 -4.83433
upperneck -7.06259 -2.92585 8.57654
head -2.30057 -1.67893 3.76821
rclavicle -1.2424e-015 1.3418e-014
rhumerus -38.2096 -29.2096 -69.5685
rradius 24.1791
rwrist 35.4546
rhand -4.67031 -11.3339
rfingers 7.12502
rthumb 21.1102 -40.2047
lclavicle -1.2424e-015 1.3418e-014
lhumerus -25.1513 7.4314 88.5722
lradius 17.1524
lwrist -31.9189
lhand -8.25503 8.68893
lfingers 7.12502
lthumb 17.6634 37.9066
rfemur -30.6048 -6.399 23.7825
rtibia 28.3609
rfoot -13.3678 10.2261
rtoes 23.1349
lfemur 0.884958 -4.37094 -15.6353
ltibia 1.59028e-015
lfoot -9.88557 0.129103
ltoes -29.0721
